<svg width="47" height="50" viewBox="0 0 47 50" fill="none" xmlns="http://www.w3.org/2000/svg">
<path d="M38.2823 32.7221H8.64337C8.64715 31.7881 8.34901 30.8778 7.79339 30.1269C7.23776 29.3761 6.4544 28.8249 5.56004 28.5555V8.45821C6.25074 8.26403 6.87961 7.89479 7.38572 7.38624C7.89184 6.87769 8.25807 6.24706 8.44893 5.55543H22.3378C22.5406 6.24327 22.9126 6.86933 23.4196 7.3764C23.9267 7.88348 24.5528 8.25541 25.2406 8.45821V14.9443L22.6434 17.5554L21.2545 16.1666C21.1409 16.0519 21.0057 15.9609 20.8567 15.8988C20.7077 15.8367 20.5479 15.8047 20.3864 15.8047C20.225 15.8047 20.0652 15.8367 19.9162 15.8988C19.7672 15.9609 19.632 16.0519 19.5184 16.1666C19.4033 16.2814 19.312 16.4178 19.2497 16.5679C19.1875 16.718 19.1554 16.879 19.1554 17.0416C19.1554 17.2041 19.1875 17.3651 19.2497 17.5152C19.312 17.6654 19.4033 17.8017 19.5184 17.9166L20.9073 19.3054L19.5184 20.6943C19.4033 20.8092 19.312 20.9455 19.2497 21.0957C19.1875 21.2458 19.1554 21.4068 19.1554 21.5693C19.1554 21.7319 19.1875 21.8928 19.2497 22.043C19.312 22.1931 19.4033 22.3295 19.5184 22.4443C19.632 22.559 19.7672 22.65 19.9162 22.7121C20.0652 22.7742 20.225 22.8061 20.3864 22.8061C20.5479 22.8061 20.7077 22.7742 20.8567 22.7121C21.0057 22.65 21.1409 22.559 21.2545 22.4443L22.6434 21.0554L25.6017 24.0138C25.7154 24.1284 25.8506 24.2194 25.9996 24.2815C26.1486 24.3436 26.3084 24.3756 26.4698 24.3756C26.6312 24.3756 26.791 24.3436 26.94 24.2815C27.089 24.2194 27.2242 24.1284 27.3378 24.0138L30.4073 21.0416L31.7962 22.4304C31.9076 22.5592 32.0444 22.6635 32.198 22.7369C32.3516 22.8103 32.5187 22.8512 32.6888 22.857C32.859 22.8628 33.0285 22.8334 33.1867 22.7706C33.345 22.7078 33.4886 22.613 33.6085 22.4922C33.7284 22.3713 33.822 22.227 33.8835 22.0683C33.945 21.9095 33.9731 21.7398 33.9659 21.5697C33.9588 21.3996 33.9166 21.2328 33.842 21.0798C33.7673 20.9268 33.6619 20.7908 33.5323 20.6804L32.1434 19.2916L33.5323 17.9027C33.6474 17.7878 33.7386 17.6515 33.8009 17.5013C33.8632 17.3512 33.8953 17.1902 33.8953 17.0277C33.8953 16.8651 33.8632 16.7042 33.8009 16.554C33.7386 16.4039 33.6474 16.2675 33.5323 16.1527C33.4187 16.038 33.2834 15.947 33.1345 15.8849C32.9855 15.8228 32.8256 15.7909 32.6642 15.7909C32.5028 15.7909 32.343 15.8228 32.194 15.8849C32.045 15.947 31.9098 16.038 31.7962 16.1527L30.4073 17.5416L27.8239 14.9443V8.45821C28.5405 8.24419 29.1891 7.84781 29.7065 7.30787C30.2239 6.76793 30.5922 6.10292 30.7755 5.37791C30.9587 4.65291 30.9506 3.89276 30.7519 3.17183C30.5532 2.45091 30.1708 1.79391 29.642 1.26514C29.1132 0.736362 28.4562 0.353923 27.7353 0.155243C27.0144 -0.0434376 26.2542 -0.0515518 25.5292 0.131694C24.8042 0.31494 24.1392 0.683268 23.5993 1.20064C23.0593 1.718 22.663 2.36668 22.4489 3.0832H8.56004C8.34203 2.37443 7.94523 1.73371 7.40783 1.22274C6.87043 0.711774 6.21053 0.34776 5.49167 0.165748C4.77281 -0.0162631 4.0192 -0.0101424 3.30339 0.183521C2.58758 0.377185 1.93368 0.751869 1.40465 1.2715C0.875623 1.79113 0.489278 2.43821 0.282815 3.15043C0.076352 3.86265 0.0567243 4.61604 0.225822 5.33804C0.394919 6.06005 0.747046 6.72637 1.2483 7.27284C1.74956 7.81931 2.38306 8.22754 3.08781 8.45821V28.5832C2.19345 28.8527 1.41008 29.4039 0.854457 30.1547C0.298833 30.9056 0.000695412 31.8158 0.00447326 32.7499C0.00447326 33.1527 0.00447326 33.5277 0.00447326 33.861C-0.00149109 33.8978 -0.00149109 33.9353 0.00447326 33.9721V41.3888C0.0154748 43.674 0.930056 45.8621 2.54858 47.4754C4.1671 49.0888 6.35812 49.9963 8.64337 49.9999H38.2823C40.5735 49.9999 42.7708 49.0898 44.3909 47.4697C46.011 45.8495 46.9212 43.6522 46.9212 41.361C46.9212 39.0699 46.011 36.8725 44.3909 35.2524C42.7708 33.6323 40.5735 32.7221 38.2823 32.7221ZM28.5601 19.2916L26.5323 21.3888L24.4628 19.2916L26.5323 17.2082L28.5601 19.2916ZM38.2823 45.0555C37.5477 45.0582 36.8288 44.8427 36.2168 44.4363C35.6049 44.0299 35.1274 43.4509 34.845 42.7727C34.5626 42.0945 34.488 41.3477 34.6307 40.6271C34.7733 39.9065 35.1268 39.2444 35.6462 38.725C36.1657 38.2055 36.8277 37.8521 37.5484 37.7094C38.269 37.5668 39.0158 37.6414 39.694 37.9238C40.3721 38.2062 40.9511 38.6836 41.3576 39.2956C41.764 39.9075 41.9795 40.6264 41.9767 41.361C41.9767 42.3409 41.5875 43.2806 40.8947 43.9734C40.2018 44.6662 39.2621 45.0555 38.2823 45.0555ZM4.94892 41.361C4.94618 40.6264 5.16168 39.9075 5.5681 39.2956C5.97452 38.6836 6.55354 38.2062 7.23171 37.9238C7.90989 37.6414 8.65666 37.5668 9.3773 37.7094C10.0979 37.8521 10.76 38.2055 11.2794 38.725C11.7989 39.2444 12.1523 39.9065 12.295 40.6271C12.4376 41.3477 12.363 42.0945 12.0806 42.7727C11.7982 43.4509 11.3208 44.0299 10.7088 44.4363C10.0969 44.8427 9.37799 45.0582 8.64337 45.0555C7.66467 45.0518 6.7271 44.6614 6.03504 43.9694C5.34299 43.2773 4.95258 42.3397 4.94892 41.361ZM32.1017 41.361C32.1017 42.0951 31.8839 42.8126 31.4758 43.4227C31.0677 44.0328 30.4877 44.5081 29.8093 44.7884C29.1309 45.0687 28.3845 45.1413 27.6648 44.9971C26.9451 44.8528 26.2844 44.4983 25.7663 43.9783C25.2482 43.4583 24.8961 42.7962 24.7546 42.0759C24.6131 41.3557 24.6885 40.6096 24.9713 39.9323C25.2541 39.2549 25.7316 38.6767 26.3433 38.2709C26.9549 37.8651 27.6733 37.6499 28.4073 37.6527C29.3884 37.6564 30.3281 38.0487 31.0205 38.7437C31.7129 39.4388 32.1017 40.3799 32.1017 41.361ZM22.2267 41.361C22.2267 42.0945 22.0092 42.8114 21.6018 43.4213C21.1943 44.0311 20.6151 44.5064 19.9375 44.7871C19.2599 45.0678 18.5143 45.1412 17.7949 44.9981C17.0756 44.855 16.4148 44.5018 15.8962 43.9832C15.3776 43.4646 15.0244 42.8038 14.8813 42.0845C14.7382 41.3651 14.8117 40.6195 15.0923 39.9419C15.373 39.2643 15.8483 38.6851 16.4581 38.2777C17.068 37.8702 17.7849 37.6527 18.5184 37.6527C19.5019 37.6527 20.4451 38.0434 21.1406 38.7388C21.836 39.4343 22.2267 40.3775 22.2267 41.361Z" fill="#0B7572"/>
</svg>
