<svg width="44" height="44" viewBox="0 0 44 44" fill="none" xmlns="http://www.w3.org/2000/svg">
<path fill-rule="evenodd" clip-rule="evenodd" d="M9.53906 9.53906C12.7273 6.35078 17.1359 4.37422 22 4.37422C26.8641 4.37422 31.2727 6.35078 34.4609 9.53906C37.6492 12.7273 39.6258 17.1359 39.6258 22C39.6258 26.8641 37.6492 31.2727 34.4609 34.4609C31.2727 37.6492 26.8641 39.6258 22 39.6258C17.1359 39.6258 12.7273 37.6492 9.53906 34.4609C6.35078 31.2727 4.37422 26.8641 4.37422 22C4.37422 17.1359 6.35078 12.7273 9.53906 9.53906ZM44 22C44 15.9242 41.5336 10.4242 37.5547 6.44531C33.5758 2.46641 28.0758 0 22 0C15.9242 0 10.4242 2.46641 6.44531 6.44531C2.46641 10.4242 0 15.9242 0 22C0 28.0758 2.46641 33.5758 6.44531 37.5547C10.4242 41.5336 15.9242 44 22 44C28.0758 44 33.5758 41.5336 37.5547 37.5547C41.5336 33.5758 44 28.0758 44 22Z" fill="#0B7572"/>
<path fill-rule="evenodd" clip-rule="evenodd" d="M16.9125 16.9898C16.9125 15.4258 17.4625 14.1625 18.5711 13.2C19.3102 12.5469 20.4102 12.1516 21.8625 12.0055V10.957H23.1602V12.0055C24.432 12.1258 25.4461 12.5039 26.1938 13.1227C27.1562 13.9133 27.732 15.0133 27.9211 16.4055L25.6523 16.7492C25.5234 15.8898 25.257 15.2281 24.8445 14.7727C24.4406 14.3172 23.8734 14.0078 23.1602 13.8617V20.1867C24.2602 20.4617 24.9992 20.6852 25.3516 20.8398C26.0305 21.1406 26.5891 21.5016 27.0188 21.9312C27.4484 22.3609 27.7836 22.8766 28.0156 23.4695C28.2477 24.0625 28.368 24.707 28.368 25.3945C28.368 26.9156 27.8781 28.1789 26.9156 29.2016C25.9531 30.2242 24.6984 30.7656 23.1602 30.8344V33.0516H21.8625V30.8602C20.7625 30.7227 19.8773 30.4734 19.1898 30.1211C18.5023 29.7688 17.9094 29.193 17.4109 28.4109C16.9125 27.6203 16.6203 26.6578 16.543 25.5234L18.7516 25.1109C18.9234 26.2883 19.2242 27.1562 19.6539 27.7063C20.2727 28.4883 21.0117 28.918 21.8711 29.0125V22.0344C20.9688 21.8625 20.0492 21.5102 19.1039 20.9859C18.4078 20.5906 17.8664 20.0578 17.4883 19.3617C17.1102 18.6742 16.9211 17.8922 16.9211 17.007L16.9125 16.9898ZM38.1562 22C38.1562 17.5398 36.3516 13.5008 33.4211 10.5789C30.4992 7.65703 26.4602 5.84375 22 5.84375C17.5398 5.84375 13.5008 7.64844 10.5789 10.5789C7.65703 13.5008 5.84375 17.5398 5.84375 22C5.84375 26.4602 7.64844 30.4992 10.5789 33.4211C13.5008 36.343 17.5398 38.1562 22 38.1562C26.4602 38.1562 30.4992 36.3516 33.4211 33.4211C36.343 30.4992 38.1562 26.4602 38.1562 22Z" fill="#0B7572"/>
<path fill-rule="evenodd" clip-rule="evenodd" d="M21.8626 19.9031V13.8359C21.0118 13.9648 20.3329 14.3086 19.8431 14.8586C19.3532 15.4086 19.104 16.0617 19.104 16.8266C19.104 17.5742 19.3103 18.2016 19.7313 18.7C20.1524 19.207 20.8571 19.6109 21.854 19.9031H21.8626Z" fill="#0B7572"/>
<path fill-rule="evenodd" clip-rule="evenodd" d="M26.0993 25.5319C26.0993 24.7413 25.9017 24.0968 25.5063 23.6155C25.111 23.1343 24.3204 22.696 23.1431 22.3179V28.9952C23.9938 28.8921 24.6985 28.5226 25.2571 27.8866C25.8157 27.2507 26.0907 26.4687 26.0907 25.5319H26.0993Z" fill="#0B7572"/>
</svg>
