<svg width="28" height="28" viewBox="0 0 28 28" fill="none" xmlns="http://www.w3.org/2000/svg">
<path d="M27.0674 13.9091C27.0674 21.319 21.1158 27.3182 13.7837 27.3182C6.45158 27.3182 0.5 21.319 0.5 13.9091C0.5 6.49918 6.45158 0.5 13.7837 0.5C21.1158 0.5 27.0674 6.49918 27.0674 13.9091Z" stroke="white"/>
<path d="M15.0103 21.0629V14.6586H17.7504L18.1577 12.1511H15.0103V10.5539C15.0103 9.83034 15.266 9.33494 16.583 9.33494H18.2518V7.09937C17.4399 7.03076 16.6237 6.99763 15.8071 7.00013C13.3851 7.00013 11.7222 8.16597 11.7222 10.3062V12.1464H9V14.6539H11.7282V21.0629H15.0103Z" fill="white"/>
</svg>
