<svg width="44" height="50" viewBox="0 0 44 50" fill="none" xmlns="http://www.w3.org/2000/svg">
<path fill-rule="evenodd" clip-rule="evenodd" d="M4.28682 14.011C1.59197 17.6649 0 22.1818 0 27.0728C0 31.9639 1.59197 36.4808 4.28682 40.1347C6.73233 39.2332 9.45594 38.514 12.381 38.0153C12.7262 37.9577 13.0715 37.9002 13.4167 37.8522C12.7454 34.6299 12.3714 30.9665 12.3714 27.0824C12.3714 25.2891 12.4481 23.5437 12.6015 21.8654L11.8631 23.0641L6.62683 14.807C5.82126 14.5672 5.03486 14.2987 4.28682 14.0206V14.011Z" fill="#0B7572"/>
<path fill-rule="evenodd" clip-rule="evenodd" d="M12.6208 39.4444C9.96435 39.8952 7.48049 40.5377 5.24597 41.3337C5.82138 42.0146 6.43516 42.6571 7.09688 43.2517C10.1466 46.0617 13.9827 48.0181 18.2407 48.7469C17.0132 47.5098 15.9199 45.6876 15.028 43.4052C14.5389 42.1584 14.1073 40.7679 13.7333 39.2622C13.3593 39.3197 12.9853 39.3773 12.6208 39.4444Z" fill="#0B7572"/>
<path fill-rule="evenodd" clip-rule="evenodd" d="M15.2003 39.0705C15.5456 40.4515 15.9484 41.727 16.3991 42.8778C17.8952 46.7043 19.8803 49.0731 22.0094 49.0731C24.1384 49.0731 26.1236 46.7043 27.6196 42.8778C28.0704 41.727 28.4732 40.4515 28.8184 39.0705C26.6414 38.8116 24.359 38.6677 22.019 38.6677C19.6694 38.6677 17.3965 38.802 15.2195 39.0705H15.2003Z" fill="#0B7572"/>
<path fill-rule="evenodd" clip-rule="evenodd" d="M13.8386 27.0638C13.8386 30.8903 14.2126 34.4962 14.8744 37.6322C17.1664 37.3541 19.5544 37.2006 22.0095 37.2006C24.4646 37.2006 26.8525 37.3541 29.1446 37.6322C29.8063 34.4866 30.1803 30.8903 30.1803 27.0638C30.1803 23.2373 29.8063 19.6314 29.1446 16.4954C26.8525 16.7735 24.4646 16.9269 22.0095 16.9269C19.89 16.9269 17.8186 16.8118 15.8238 16.6009L14.9319 18.049L14.4428 18.845C14.0496 21.3864 13.8386 24.1579 13.8386 27.0734V27.0638Z" fill="#0B7572"/>
<path fill-rule="evenodd" clip-rule="evenodd" d="M16.6676 15.2198C18.3939 15.3829 20.1776 15.4596 21.9998 15.4596C24.3494 15.4596 26.6223 15.3253 28.7992 15.0568C28.454 13.6758 28.0512 12.4003 27.6005 11.2495C26.1044 7.42298 24.1192 5.0542 21.9902 5.0542C21.3572 5.0542 20.7339 5.26518 20.1297 5.66797C20.1585 5.85019 20.1776 6.04199 20.1872 6.23379C20.1872 6.24338 20.1872 6.26257 20.1872 6.27216C20.1872 6.29134 20.1872 6.32011 20.1968 6.33929C20.2064 6.43519 20.216 6.53109 20.216 6.62699C20.216 6.63658 20.216 6.63658 20.216 6.65576C20.216 6.77085 20.216 6.87634 20.216 6.99142C20.216 8.6793 19.5159 10.5398 18.6336 11.9687L16.6484 15.2102L16.6676 15.2198Z" fill="#0B7572"/>
<path fill-rule="evenodd" clip-rule="evenodd" d="M28.972 10.7217C29.4612 11.9684 29.8927 13.359 30.2667 14.8647C30.6407 14.8071 31.0148 14.7496 31.3792 14.6825C34.0357 14.2317 36.5195 13.5892 38.7541 12.7932C38.1786 12.1123 37.5553 11.4697 36.9031 10.8655C33.8631 8.06521 30.0174 6.10881 25.7689 5.37036C26.9965 6.6075 28.0898 8.42964 28.9816 10.7121L28.972 10.7217Z" fill="#0B7572"/>
<path fill-rule="evenodd" clip-rule="evenodd" d="M30.5835 16.2938C31.2548 19.5161 31.6288 23.1796 31.6288 27.0636C31.6288 30.9477 31.2548 34.6111 30.5835 37.8334C30.9287 37.8814 31.274 37.9389 31.6192 37.9965C34.5443 38.4952 37.2679 39.2144 39.7134 40.1159C42.4082 36.462 44.0002 31.9451 44.0002 27.054C44.0002 22.163 42.4082 17.6461 39.7134 13.9922C37.2679 14.8937 34.5443 15.6129 31.6192 16.1116C31.274 16.1692 30.9287 16.2267 30.5835 16.2747V16.2938Z" fill="#0B7572"/>
<path fill-rule="evenodd" clip-rule="evenodd" d="M30.2669 39.2718C29.9025 40.7775 29.4613 42.168 28.9722 43.4148C28.0804 45.6876 26.9967 47.5194 25.7595 48.7565C30.0176 48.0181 33.8537 46.0713 36.8938 43.2613C37.5459 42.6571 38.1692 42.0146 38.7447 41.3337C36.5101 40.5377 34.0263 39.9048 31.3698 39.4444C31.0054 39.3773 30.6313 39.3197 30.2573 39.2622L30.2669 39.2718Z" fill="#0B7572"/>
<path fill-rule="evenodd" clip-rule="evenodd" d="M14.0687 8.10372C13.4741 8.69832 12.6494 9.07234 11.7383 9.07234C10.8272 9.07234 10.0025 8.70791 9.40787 8.10372C8.81328 7.50913 8.43926 6.68437 8.43926 5.7733C8.43926 4.86223 8.80369 4.03748 9.40787 3.44288C10.0025 2.84829 10.8272 2.47427 11.7383 2.47427C12.6494 2.47427 13.4741 2.8387 14.0687 3.44288C14.6633 4.03748 15.0373 4.86223 15.0373 5.7733C15.0373 6.68437 14.6729 7.50913 14.0687 8.10372ZM13.7426 17.1952C13.7235 17.224 13.7043 17.2528 13.6851 17.2816L13.7426 17.1952ZM18.7487 6.3679C18.7487 6.37749 18.7487 6.38708 18.7487 6.38708C18.7487 6.37749 18.7487 6.3679 18.7487 6.3679ZM6.78016 2.03312C5.50466 3.30862 4.71826 5.06363 4.71826 7.00085C4.71826 8.18045 5.36081 9.82037 6.30065 11.5946C6.31024 11.6041 6.31983 11.6137 6.33901 11.6233C6.38696 11.6713 6.43491 11.7288 6.46368 11.7864L7.09663 12.7837C7.10622 12.7933 7.10622 12.8029 7.11581 12.8125L11.863 20.2929L12.8795 18.6434C12.8987 18.6146 12.9179 18.5762 12.9371 18.5475L13.7043 17.3007L13.7618 17.2048L17.4349 11.2205C18.25 9.58062 18.7967 8.09413 18.7967 7.01044C18.7967 6.88577 18.7967 6.79946 18.7967 6.73233C18.7967 6.72273 18.7967 6.71314 18.7967 6.71314C18.7967 6.6556 18.7871 6.57888 18.7775 6.48298C18.7775 6.4638 18.7775 6.44462 18.7679 6.41585C18.7679 6.40626 18.7679 6.39667 18.7679 6.39667C18.6145 4.70879 17.8664 3.19354 16.7348 2.06189C15.4593 0.786397 13.7043 0 11.7671 0C9.82984 0 8.07483 0.786397 6.79934 2.06189L6.78016 2.03312Z" fill="#0B7572"/>
</svg>
