<svg width="28" height="28" viewBox="0 0 28 28" fill="none" xmlns="http://www.w3.org/2000/svg">
<path d="M27.0674 13.9091C27.0674 21.319 21.1158 27.3182 13.7837 27.3182C6.45158 27.3182 0.5 21.319 0.5 13.9091C0.5 6.49918 6.45158 0.5 13.7837 0.5C21.1158 0.5 27.0674 6.49918 27.0674 13.9091Z" stroke="white"/>
<path fill-rule="evenodd" clip-rule="evenodd" d="M10.7018 6.048C11.5549 6.00873 11.8269 6 14 6C16.1731 6 16.4451 6.00945 17.2975 6.048C18.1498 6.08655 18.7316 6.22255 19.2407 6.41964C19.7738 6.62109 20.2575 6.936 20.6575 7.34327C21.0647 7.74255 21.3789 8.22545 21.5796 8.75927C21.7775 9.26836 21.9127 9.85018 21.952 10.7011C21.9913 11.5556 22 11.8276 22 14C22 16.1731 21.9905 16.4451 21.952 17.2982C21.9135 18.1491 21.7775 18.7309 21.5796 19.24C21.3789 19.7739 21.0642 20.2576 20.6575 20.6575C20.2575 21.0647 19.7738 21.3789 19.2407 21.5796C18.7316 21.7775 18.1498 21.9127 17.2989 21.952C16.4451 21.9913 16.1731 22 14 22C11.8269 22 11.5549 21.9905 10.7018 21.952C9.85091 21.9135 9.26909 21.7775 8.76 21.5796C8.22612 21.3789 7.74241 21.0642 7.34255 20.6575C6.93555 20.2579 6.62059 19.7745 6.41964 19.2407C6.22255 18.7316 6.08727 18.1498 6.048 17.2989C6.00873 16.4444 6 16.1724 6 14C6 11.8269 6.00945 11.5549 6.048 10.7025C6.08655 9.85018 6.22255 9.26836 6.41964 8.75927C6.62089 8.22551 6.93609 7.74205 7.34327 7.34255C7.74257 6.93564 8.2258 6.62069 8.75927 6.41964C9.26836 6.22255 9.85018 6.08727 10.7011 6.048H10.7018ZM17.2327 7.488C16.3891 7.44945 16.136 7.44145 14 7.44145C11.864 7.44145 11.6109 7.44945 10.7673 7.488C9.98691 7.52364 9.56364 7.65382 9.28145 7.76364C8.90836 7.90909 8.64145 8.08145 8.36145 8.36145C8.09603 8.61967 7.89177 8.93402 7.76364 9.28145C7.65382 9.56364 7.52364 9.98691 7.488 10.7673C7.44945 11.6109 7.44145 11.864 7.44145 14C7.44145 16.136 7.44945 16.3891 7.488 17.2327C7.52364 18.0131 7.65382 18.4364 7.76364 18.7185C7.89164 19.0655 8.096 19.3804 8.36145 19.6385C8.61964 19.904 8.93455 20.1084 9.28145 20.2364C9.56364 20.3462 9.98691 20.4764 10.7673 20.512C11.6109 20.5505 11.8633 20.5585 14 20.5585C16.1367 20.5585 16.3891 20.5505 17.2327 20.512C18.0131 20.4764 18.4364 20.3462 18.7185 20.2364C19.0916 20.0909 19.3585 19.9185 19.6385 19.6385C19.904 19.3804 20.1084 19.0655 20.2364 18.7185C20.3462 18.4364 20.4764 18.0131 20.512 17.2327C20.5505 16.3891 20.5585 16.136 20.5585 14C20.5585 11.864 20.5505 11.6109 20.512 10.7673C20.4764 9.98691 20.3462 9.56364 20.2364 9.28145C20.0909 8.90836 19.9185 8.64145 19.6385 8.36145C19.3803 8.09605 19.066 7.89179 18.7185 7.76364C18.4364 7.65382 18.0131 7.52364 17.2327 7.488ZM12.9782 16.4662C13.5488 16.7037 14.1843 16.7358 14.7759 16.5569C15.3676 16.378 15.8788 15.9992 16.2223 15.4853C16.5657 14.9713 16.72 14.3541 16.6589 13.739C16.5978 13.1239 16.3251 12.5491 15.8873 12.1127C15.6082 11.8338 15.2707 11.6202 14.8992 11.4874C14.5276 11.3545 14.1312 11.3057 13.7385 11.3444C13.3459 11.3832 12.9667 11.5085 12.6282 11.7114C12.2898 11.9142 12.0005 12.1896 11.7813 12.5177C11.5621 12.8458 11.4183 13.2184 11.3604 13.6087C11.3024 13.999 11.3317 14.3973 11.4462 14.7749C11.5607 15.1525 11.7574 15.5001 12.0223 15.7925C12.2872 16.085 12.6137 16.315 12.9782 16.4662ZM11.0924 11.0924C11.4742 10.7105 11.9275 10.4076 12.4264 10.201C12.9253 9.99434 13.46 9.88798 14 9.88798C14.54 9.88798 15.0747 9.99434 15.5736 10.201C16.0725 10.4076 16.5258 10.7105 16.9076 11.0924C17.2895 11.4742 17.5924 11.9275 17.799 12.4264C18.0057 12.9253 18.112 13.46 18.112 14C18.112 14.54 18.0057 15.0747 17.799 15.5736C17.5924 16.0725 17.2895 16.5258 16.9076 16.9076C16.1365 17.6788 15.0906 18.112 14 18.112C12.9094 18.112 11.8635 17.6788 11.0924 16.9076C10.3212 16.1365 9.88798 15.0906 9.88798 14C9.88798 12.9094 10.3212 11.8635 11.0924 11.0924ZM19.024 10.5004C19.1186 10.4111 19.1944 10.3038 19.2468 10.1847C19.2992 10.0656 19.3271 9.93729 19.329 9.80722C19.3309 9.67716 19.3067 9.54803 19.2578 9.4275C19.2089 9.30696 19.1363 9.19746 19.0443 9.10548C18.9524 9.0135 18.8429 8.94091 18.7223 8.89201C18.6018 8.84311 18.4727 8.81889 18.3426 8.82079C18.2125 8.82268 18.0842 8.85066 17.9651 8.90305C17.8461 8.95545 17.7387 9.0312 17.6495 9.12582C17.4759 9.30984 17.3808 9.55427 17.3845 9.80722C17.3882 10.0602 17.4903 10.3017 17.6692 10.4806C17.8481 10.6595 18.0896 10.7616 18.3426 10.7653C18.5955 10.769 18.84 10.674 19.024 10.5004Z" fill="white"/>
</svg>
