<svg width="67" height="39" viewBox="0 0 67 39" fill="none" xmlns="http://www.w3.org/2000/svg">
<path d="M21.7563 30.3559L42.3365 38.9555V18.0078L21.7563 10.3638V30.3559Z" fill="#0B7572"/>
<path d="M58.1389 19.404L52.4059 21.462V15.6555L44.8353 18.3015V38.9552L66.1505 30.3556V10.731L58.1389 13.5975V19.404ZM51.3034 34.2511L50.4214 34.6186V29.9881L51.3034 29.6941V34.2511ZM52.8469 33.6631L51.9649 34.0306V29.4001L52.8469 29.1061V33.6631ZM55.9339 32.4136L55.0519 32.7076V28.1506L55.9339 27.8566V32.4136ZM57.4774 31.7521L56.5954 32.1196V27.6361L57.4774 27.3421V31.7521ZM60.5644 26.0926L61.4465 25.7986V30.1351L60.5644 30.5026V26.0926ZM58.8004 26.7541L59.6824 26.4601V30.8701L58.8004 31.2376V26.7541Z" fill="#0B7572"/>
<path d="M58.1391 10.7311L66.1507 7.79106L43.9535 0L36.824 2.49902L58.1391 10.5841V10.7311Z" fill="#0B7572"/>
<path d="M30.5029 4.7041L21.7563 7.79112L43.9535 15.8762L52.3326 12.8627L30.5029 4.7041Z" fill="#0B7572"/>
<path d="M0 28.4446H18.2281V24.7695H1.69051L0 28.4446Z" fill="#0B7572"/>
<path d="M3.01367 21.9765H18.2283V18.3015H4.70418L3.01367 21.9765Z" fill="#0B7572"/>
<path d="M6.0271 15.2883V15.5823H18.2282V11.9072H7.64411L6.0271 15.2883Z" fill="#0B7572"/>
</svg>
