<svg width="79" height="97" viewBox="0 0 79 97" fill="none" xmlns="http://www.w3.org/2000/svg">
<path fill-rule="evenodd" clip-rule="evenodd" d="M18.9266 87.7814C20.4929 87.7814 21.7638 89.208 21.7638 90.9655C21.7638 92.7229 20.4929 94.1496 18.9266 94.1496C17.3603 94.1496 16.0894 92.7229 16.0894 90.9655C16.0894 89.208 17.3603 87.7814 18.9266 87.7814ZM18.9266 85.3556C22.0472 85.3556 24.5779 87.8679 24.5779 90.9655C24.5779 94.0631 22.0472 96.5754 18.9266 96.5754C15.806 96.5754 13.2753 94.0631 13.2753 90.9655C13.2753 87.8679 15.806 85.3556 18.9266 85.3556ZM32.1431 87.7814C33.1115 87.7814 34.0225 88.2152 34.5345 89.0469L36.3909 87.2665C35.355 86.0954 33.836 85.3556 32.1431 85.3556C29.0225 85.3556 26.4918 87.8679 26.4918 90.9655C26.4918 94.0631 29.0225 96.5754 32.1431 96.5754C33.8752 96.5754 35.4253 95.8009 36.462 94.5823L34.533 92.9306C34.018 93.7359 33.0932 94.1496 32.1431 94.1496C30.5768 94.1496 29.3059 92.7229 29.3059 90.9655C29.3059 89.208 30.5768 87.7814 32.1431 87.7814ZM50.8234 91.7018H58.9408C58.9714 91.4608 58.9874 91.2151 58.9874 90.9655C58.9874 87.8679 56.5464 85.3556 53.5365 85.3556C50.5266 85.3556 48.0856 87.8679 48.0856 90.9655C48.0856 94.0631 50.5266 96.5754 53.5365 96.5754C55.253 96.5754 57.2267 96.284 58.2259 95.0073L56.9848 93.2111C56.3623 94.1061 54.7152 94.3554 53.6642 94.3554C52.275 94.3554 51.1124 93.2193 50.8235 91.7018H50.8234ZM50.8853 89.9578C51.2538 88.5782 52.359 87.5756 53.6642 87.5756C54.9693 87.5756 56.0746 88.5782 56.4432 89.9578H50.8853ZM38.1011 85.612H46.8369V88.019H43.8177V96.319H41.1202V88.019H38.1011V85.612ZM63.4524 90.7992L59.7751 85.612H63.0236L65.2245 88.9264L67.4254 85.612H70.6738L66.9966 90.7992L70.8404 96.319H67.7012L65.2245 92.7352L62.7478 96.319H59.6086L63.4524 90.7992ZM65.2245 89.428L65.2118 89.4491L65.2245 89.4493L65.2371 89.4491L65.2245 89.428ZM6.7132 84.2056C7.8848 84.2056 8.8349 85.1557 8.8349 86.3273C8.8349 87.4989 7.8848 88.449 6.7132 88.449H3.13712V84.2056H6.7132ZM0.174072 81.6861H7.32313C9.88602 81.6861 11.9644 83.7645 11.9644 86.3272C11.9644 88.8902 9.88596 90.9685 7.32313 90.9685H3.13712V96.319H0.174072V81.6861Z" fill="black"/>
<path fill-rule="evenodd" clip-rule="evenodd" d="M9.04678 9.04678H32.7012L23.6544 0H0V23.6544L9.04678 32.7012V9.04678ZM37.5853 9.04678H61.2397V32.7012L70.2865 23.6544V0H46.6321L37.5853 9.04678ZM61.2397 37.5853V61.2397H37.5853L46.6321 70.2865H70.2865V46.6321L61.2397 37.5853ZM32.7012 61.2397H9.04678V37.5853L0 46.6321V70.2865H23.6544L32.7012 61.2397Z" fill="black"/>
<path d="M72.8112 0.382614H75.0745V0.870566H74.1869V3.58046H73.6987V0.870566H72.8112V0.382614ZM77.1072 2.76336L78.1672 0.382809H78.7106V3.5804H78.2224V1.47932L77.284 3.5804H76.9304L75.9919 1.47932V3.5804H75.5038V0.382809H76.0471L77.1072 2.76336Z" fill="black"/>
</svg>
