<svg width="40" height="50" viewBox="0 0 40 50" fill="none" xmlns="http://www.w3.org/2000/svg">
<path fill-rule="evenodd" clip-rule="evenodd" d="M6.16773 36.7454H13.0702C13.5245 36.7454 13.8919 37.1127 13.8919 37.5671V44.4695C13.8919 44.9239 13.5245 45.2913 13.0702 45.2913H6.16773C5.71337 45.2913 5.34601 44.9239 5.34601 44.4695V37.5671C5.34601 37.1127 5.71337 36.7454 6.16773 36.7454ZM33.6132 27.1071H20.9587C20.5043 27.1071 20.137 26.7397 20.137 26.2854C20.137 25.831 20.5043 25.4636 20.9587 25.4636H33.6132C34.0675 25.4636 34.4349 25.831 34.4349 26.2854C34.4349 26.7397 34.0675 27.1071 33.6132 27.1071ZM14.4043 10.3827L7.94651 16.8404C7.89818 16.8984 7.83051 16.9468 7.76283 16.9854C7.36648 17.2078 6.87344 17.0821 6.64143 16.6857L4.68864 13.3022C4.46629 12.9155 4.59196 12.4128 4.98832 12.1808C5.37501 11.9584 5.87771 12.0841 6.10973 12.4805L7.53082 14.9456L13.2442 9.23226C13.5632 8.91324 14.0852 8.91324 14.4043 9.23226C14.7233 9.55128 14.7233 10.0733 14.4043 10.3923V10.3827ZM10.1893 0H0.82172C0.367357 0 0 0.367357 0 0.82172V48.6748C0 49.1292 0.367357 49.4965 0.82172 49.4965H38.1955C38.6498 49.4965 39.0172 49.1292 39.0172 48.6748V0.82172C39.0172 0.367357 38.6498 0 38.1955 0H28.8279V4.47596C28.8279 4.93032 28.4605 5.29768 28.0061 5.29768H11.011C10.5567 5.29768 10.1893 4.93032 10.1893 4.47596V0ZM20.137 41.0183C20.137 40.5639 20.5043 40.1966 20.9587 40.1966H33.6132C34.0675 40.1966 34.4349 40.5639 34.4349 41.0183C34.4349 41.4727 34.0675 41.84 33.6132 41.84H20.9587C20.5043 41.84 20.137 41.4727 20.137 41.0183ZM14.4043 23.6365L7.94651 30.0943C7.89818 30.1523 7.83051 30.2006 7.76283 30.2393C7.36648 30.4616 6.87344 30.336 6.64143 29.9396L4.68864 26.556C4.46629 26.1694 4.59196 25.6667 4.98832 25.4346C5.37501 25.2123 5.87771 25.338 6.10973 25.7343L7.53082 28.1995L13.2442 22.4861C13.5632 22.1671 14.0852 22.1671 14.4043 22.4861C14.7233 22.8051 14.7233 23.3272 14.4043 23.6462V23.6365ZM20.9587 13.8532C20.5043 13.8532 20.137 13.4859 20.137 13.0315C20.137 12.5771 20.5043 12.2098 20.9587 12.2098H33.6132C34.0675 12.2098 34.4349 12.5771 34.4349 13.0315C34.4349 13.4859 34.0675 13.8532 33.6132 13.8532H20.9587Z" fill="#0B7572"/>
<path fill-rule="evenodd" clip-rule="evenodd" d="M28.0061 0.0290527H11.011V4.47601H28.0061V0.0290527Z" fill="#0B7572"/>
</svg>
